%TF.GenerationSoftware,KiCad,Pcbnew,(6.0.7)*%
%TF.CreationDate,2022-10-25T22:42:20-05:00*%
%TF.ProjectId,embebidos,656d6265-6269-4646-9f73-2e6b69636164,rev?*%
%TF.SameCoordinates,Original*%
%TF.FileFunction,Soldermask,Bot*%
%TF.FilePolarity,Negative*%
%FSLAX46Y46*%
G04 Gerber Fmt 4.6, Leading zero omitted, Abs format (unit mm)*
G04 Created by KiCad (PCBNEW (6.0.7)) date 2022-10-25 22:42:20*
%MOMM*%
%LPD*%
G01*
G04 APERTURE LIST*
G04 Aperture macros list*
%AMRoundRect*
0 Rectangle with rounded corners*
0 $1 Rounding radius*
0 $2 $3 $4 $5 $6 $7 $8 $9 X,Y pos of 4 corners*
0 Add a 4 corners polygon primitive as box body*
4,1,4,$2,$3,$4,$5,$6,$7,$8,$9,$2,$3,0*
0 Add four circle primitives for the rounded corners*
1,1,$1+$1,$2,$3*
1,1,$1+$1,$4,$5*
1,1,$1+$1,$6,$7*
1,1,$1+$1,$8,$9*
0 Add four rect primitives between the rounded corners*
20,1,$1+$1,$2,$3,$4,$5,0*
20,1,$1+$1,$4,$5,$6,$7,0*
20,1,$1+$1,$6,$7,$8,$9,0*
20,1,$1+$1,$8,$9,$2,$3,0*%
G04 Aperture macros list end*
%TA.AperFunction,Profile*%
%ADD10C,0.150000*%
%TD*%
%ADD11R,2.200000X2.200000*%
%ADD12O,2.200000X2.200000*%
%ADD13RoundRect,0.250000X-0.600000X-0.750000X0.600000X-0.750000X0.600000X0.750000X-0.600000X0.750000X0*%
%ADD14O,1.700000X2.000000*%
%ADD15RoundRect,0.250000X-0.725000X0.600000X-0.725000X-0.600000X0.725000X-0.600000X0.725000X0.600000X0*%
%ADD16O,1.950000X1.700000*%
%ADD17R,2.000000X1.905000*%
%ADD18O,2.000000X1.905000*%
%ADD19R,1.700000X1.700000*%
%ADD20O,1.700000X1.700000*%
%ADD21RoundRect,0.250000X0.725000X-0.600000X0.725000X0.600000X-0.725000X0.600000X-0.725000X-0.600000X0*%
%ADD22RoundRect,0.250000X-0.750000X0.600000X-0.750000X-0.600000X0.750000X-0.600000X0.750000X0.600000X0*%
%ADD23O,2.000000X1.700000*%
%ADD24C,2.600000*%
%ADD25C,4.400000*%
%ADD26R,2.000000X4.600000*%
%ADD27O,2.000000X4.200000*%
%ADD28O,4.200000X2.000000*%
%ADD29RoundRect,0.250000X-0.600000X-0.725000X0.600000X-0.725000X0.600000X0.725000X-0.600000X0.725000X0*%
%ADD30O,1.700000X1.950000*%
G04 APERTURE END LIST*
D10*
X53594000Y-41910000D02*
X153670000Y-41910000D01*
X153670000Y-41910000D02*
X153670000Y-141986000D01*
X153670000Y-141986000D02*
X53594000Y-141986000D01*
X53594000Y-141986000D02*
X53594000Y-41910000D01*
D11*
%TO.C,D7*%
X96774000Y-131318000D03*
D12*
X96774000Y-121158000D03*
%TD*%
D13*
%TO.C,Vent1*%
X123972000Y-136352000D03*
D14*
X126472000Y-136352000D03*
%TD*%
D15*
%TO.C,Botones_M1*%
X59690000Y-76708000D03*
D16*
X59690000Y-79208000D03*
X59690000Y-81708000D03*
%TD*%
D13*
%TO.C,Vent2*%
X133096000Y-136398000D03*
D14*
X135596000Y-136398000D03*
%TD*%
D17*
%TO.C,Q2*%
X121920000Y-98552000D03*
D18*
X121920000Y-101092000D03*
X121920000Y-103632000D03*
%TD*%
D13*
%TO.C,Humi1*%
X93746000Y-136098000D03*
D14*
X96246000Y-136098000D03*
%TD*%
D19*
%TO.C,J_I2C1*%
X142158000Y-85364000D03*
D20*
X142158000Y-82824000D03*
X142158000Y-80284000D03*
X142158000Y-77744000D03*
X142158000Y-75204000D03*
%TD*%
D11*
%TO.C,D8*%
X136144000Y-130556000D03*
D12*
X136144000Y-120396000D03*
%TD*%
D21*
%TO.C,DHT11_2*%
X148590000Y-116800000D03*
D16*
X148590000Y-114300000D03*
X148590000Y-111800000D03*
%TD*%
D15*
%TO.C,SE1*%
X59944000Y-64262000D03*
D16*
X59944000Y-66762000D03*
X59944000Y-69262000D03*
%TD*%
D22*
%TO.C,LedRojo1*%
X59736000Y-107208000D03*
D23*
X59736000Y-109708000D03*
%TD*%
D17*
%TO.C,Q3*%
X105735000Y-108458000D03*
D18*
X105735000Y-110998000D03*
X105735000Y-113538000D03*
%TD*%
D24*
%TO.C,REF\u002A\u002A*%
X150368000Y-44958000D03*
D25*
X150368000Y-44958000D03*
%TD*%
D22*
%TO.C,LedVerde1*%
X59690000Y-125476000D03*
D23*
X59690000Y-127976000D03*
%TD*%
D22*
%TO.C,J3*%
X59690000Y-97790000D03*
D23*
X59690000Y-100290000D03*
%TD*%
D22*
%TO.C,Buzzer1*%
X59690000Y-116586000D03*
D23*
X59690000Y-119086000D03*
%TD*%
D24*
%TO.C,REF\u002A\u002A*%
X56896000Y-138938000D03*
D25*
X56896000Y-138938000D03*
%TD*%
D11*
%TO.C,D3*%
X126492000Y-131826000D03*
D12*
X126492000Y-121666000D03*
%TD*%
D11*
%TO.C,D4*%
X66040000Y-91694000D03*
D12*
X76200000Y-91694000D03*
%TD*%
D26*
%TO.C,J2*%
X62992000Y-50912000D03*
D27*
X56692000Y-50912000D03*
D28*
X60092000Y-55712000D03*
%TD*%
D21*
%TO.C,DHT11_1*%
X148544000Y-128484000D03*
D16*
X148544000Y-125984000D03*
X148544000Y-123484000D03*
%TD*%
D21*
%TO.C,Pantalla-I2C1*%
X148544000Y-99508000D03*
D16*
X148544000Y-97008000D03*
X148544000Y-94508000D03*
X148544000Y-92008000D03*
%TD*%
D17*
%TO.C,Q4*%
X90749000Y-87376000D03*
D18*
X90749000Y-89916000D03*
X90749000Y-92456000D03*
%TD*%
D22*
%TO.C,Bomba1*%
X59690000Y-88646000D03*
D23*
X59690000Y-91146000D03*
%TD*%
D29*
%TO.C,HC-SR1*%
X102930000Y-136098000D03*
D30*
X105430000Y-136098000D03*
X107930000Y-136098000D03*
X110430000Y-136098000D03*
%TD*%
D17*
%TO.C,Q5*%
X129611000Y-112268000D03*
D18*
X129611000Y-114808000D03*
X129611000Y-117348000D03*
%TD*%
D19*
%TO.C,J1*%
X150368000Y-63769000D03*
D20*
X150368000Y-66309000D03*
X150368000Y-68849000D03*
%TD*%
M02*
