%TF.GenerationSoftware,KiCad,Pcbnew,(6.0.7)*%
%TF.CreationDate,2022-10-25T22:42:20-05:00*%
%TF.ProjectId,embebidos,656d6265-6269-4646-9f73-2e6b69636164,rev?*%
%TF.SameCoordinates,Original*%
%TF.FileFunction,Paste,Top*%
%TF.FilePolarity,Positive*%
%FSLAX46Y46*%
G04 Gerber Fmt 4.6, Leading zero omitted, Abs format (unit mm)*
G04 Created by KiCad (PCBNEW (6.0.7)) date 2022-10-25 22:42:20*
%MOMM*%
%LPD*%
G01*
G04 APERTURE LIST*
G04 Aperture macros list*
%AMRoundRect*
0 Rectangle with rounded corners*
0 $1 Rounding radius*
0 $2 $3 $4 $5 $6 $7 $8 $9 X,Y pos of 4 corners*
0 Add a 4 corners polygon primitive as box body*
4,1,4,$2,$3,$4,$5,$6,$7,$8,$9,$2,$3,0*
0 Add four circle primitives for the rounded corners*
1,1,$1+$1,$2,$3*
1,1,$1+$1,$4,$5*
1,1,$1+$1,$6,$7*
1,1,$1+$1,$8,$9*
0 Add four rect primitives between the rounded corners*
20,1,$1+$1,$2,$3,$4,$5,0*
20,1,$1+$1,$4,$5,$6,$7,0*
20,1,$1+$1,$6,$7,$8,$9,0*
20,1,$1+$1,$8,$9,$2,$3,0*%
G04 Aperture macros list end*
%TA.AperFunction,Profile*%
%ADD10C,0.150000*%
%TD*%
%ADD11RoundRect,0.237500X-0.237500X0.250000X-0.237500X-0.250000X0.237500X-0.250000X0.237500X0.250000X0*%
%ADD12RoundRect,0.237500X0.237500X-0.250000X0.237500X0.250000X-0.237500X0.250000X-0.237500X-0.250000X0*%
%ADD13RoundRect,0.237500X-0.237500X0.287500X-0.237500X-0.287500X0.237500X-0.287500X0.237500X0.287500X0*%
%ADD14RoundRect,0.237500X0.237500X-0.287500X0.237500X0.287500X-0.237500X0.287500X-0.237500X-0.287500X0*%
%ADD15RoundRect,0.237500X-0.250000X-0.237500X0.250000X-0.237500X0.250000X0.237500X-0.250000X0.237500X0*%
%ADD16RoundRect,0.237500X0.237500X-0.300000X0.237500X0.300000X-0.237500X0.300000X-0.237500X-0.300000X0*%
%ADD17RoundRect,0.237500X-0.300000X-0.237500X0.300000X-0.237500X0.300000X0.237500X-0.300000X0.237500X0*%
%ADD18RoundRect,0.250000X-0.350000X-0.450000X0.350000X-0.450000X0.350000X0.450000X-0.350000X0.450000X0*%
%ADD19RoundRect,0.237500X0.300000X0.237500X-0.300000X0.237500X-0.300000X-0.237500X0.300000X-0.237500X0*%
%ADD20RoundRect,0.237500X0.250000X0.237500X-0.250000X0.237500X-0.250000X-0.237500X0.250000X-0.237500X0*%
%ADD21RoundRect,0.250000X0.350000X0.450000X-0.350000X0.450000X-0.350000X-0.450000X0.350000X-0.450000X0*%
%ADD22R,2.000000X0.900000*%
%ADD23R,0.900000X2.000000*%
%ADD24R,5.000000X5.000000*%
%ADD25RoundRect,0.250000X-0.325000X-0.450000X0.325000X-0.450000X0.325000X0.450000X-0.325000X0.450000X0*%
%ADD26R,1.550000X1.300000*%
%ADD27RoundRect,0.150000X0.587500X0.150000X-0.587500X0.150000X-0.587500X-0.150000X0.587500X-0.150000X0*%
%ADD28R,1.500000X2.000000*%
%ADD29R,3.800000X2.000000*%
%ADD30R,1.600000X1.600000*%
%ADD31RoundRect,0.237500X-0.287500X-0.237500X0.287500X-0.237500X0.287500X0.237500X-0.287500X0.237500X0*%
%ADD32RoundRect,0.250000X-0.450000X0.350000X-0.450000X-0.350000X0.450000X-0.350000X0.450000X0.350000X0*%
%ADD33RoundRect,0.150000X-0.150000X0.587500X-0.150000X-0.587500X0.150000X-0.587500X0.150000X0.587500X0*%
G04 APERTURE END LIST*
D10*
X53594000Y-41910000D02*
X153670000Y-41910000D01*
X153670000Y-41910000D02*
X153670000Y-141986000D01*
X153670000Y-141986000D02*
X53594000Y-141986000D01*
X53594000Y-141986000D02*
X53594000Y-41910000D01*
D11*
%TO.C,R9*%
X87376000Y-89257500D03*
X87376000Y-91082500D03*
%TD*%
%TO.C,R16*%
X116840000Y-92051500D03*
X116840000Y-93876500D03*
%TD*%
D12*
%TO.C,R12*%
X99568000Y-100076000D03*
X99568000Y-98251000D03*
%TD*%
D13*
%TO.C,D6*%
X119888000Y-107837000D03*
X119888000Y-109587000D03*
%TD*%
D14*
%TO.C,D1*%
X115824000Y-102221000D03*
X115824000Y-100471000D03*
%TD*%
D12*
%TO.C,R29*%
X117602000Y-79906500D03*
X117602000Y-78081500D03*
%TD*%
D15*
%TO.C,R28*%
X83669500Y-77724000D03*
X85494500Y-77724000D03*
%TD*%
D16*
%TO.C,C2*%
X91948000Y-56388000D03*
X91948000Y-54663000D03*
%TD*%
D17*
%TO.C,C1*%
X73305500Y-58928000D03*
X75030500Y-58928000D03*
%TD*%
D18*
%TO.C,R_p1*%
X90694000Y-60960000D03*
X92694000Y-60960000D03*
%TD*%
D15*
%TO.C,10k3*%
X76303500Y-67310000D03*
X78128500Y-67310000D03*
%TD*%
D12*
%TO.C,R27*%
X89916000Y-74826500D03*
X89916000Y-73001500D03*
%TD*%
%TO.C,10k4*%
X83058000Y-62888500D03*
X83058000Y-61063500D03*
%TD*%
D19*
%TO.C,C6*%
X87476500Y-49276000D03*
X85751500Y-49276000D03*
%TD*%
D20*
%TO.C,R10*%
X124102500Y-110236000D03*
X122277500Y-110236000D03*
%TD*%
D21*
%TO.C,RCL2*%
X136128000Y-85852000D03*
X134128000Y-85852000D03*
%TD*%
D11*
%TO.C,R7*%
X96266000Y-92813500D03*
X96266000Y-94638500D03*
%TD*%
D12*
%TO.C,R3*%
X119634000Y-93980000D03*
X119634000Y-92155000D03*
%TD*%
%TO.C,R11*%
X107950000Y-79906500D03*
X107950000Y-78081500D03*
%TD*%
D16*
%TO.C,C4*%
X143256000Y-52678500D03*
X143256000Y-50953500D03*
%TD*%
D22*
%TO.C,U1*%
X99958000Y-54907000D03*
X99958000Y-56177000D03*
X99958000Y-57447000D03*
X99958000Y-58717000D03*
X99958000Y-59987000D03*
X99958000Y-61257000D03*
X99958000Y-62527000D03*
X99958000Y-63797000D03*
X99958000Y-65067000D03*
X99958000Y-66337000D03*
X99958000Y-67607000D03*
X99958000Y-68877000D03*
X99958000Y-70147000D03*
X99958000Y-71417000D03*
D23*
X102743000Y-72417000D03*
X104013000Y-72417000D03*
X105283000Y-72417000D03*
X106553000Y-72417000D03*
X107823000Y-72417000D03*
X109093000Y-72417000D03*
X110363000Y-72417000D03*
X111633000Y-72417000D03*
X112903000Y-72417000D03*
X114173000Y-72417000D03*
D22*
X116958000Y-71417000D03*
X116958000Y-70147000D03*
X116958000Y-68877000D03*
X116958000Y-67607000D03*
X116958000Y-66337000D03*
X116958000Y-65067000D03*
X116958000Y-63797000D03*
X116958000Y-62527000D03*
X116958000Y-61257000D03*
X116958000Y-59987000D03*
X116958000Y-58717000D03*
X116958000Y-57447000D03*
X116958000Y-56177000D03*
X116958000Y-54907000D03*
D24*
X107458000Y-62407000D03*
%TD*%
D15*
%TO.C,R1*%
X80367500Y-46736000D03*
X82192500Y-46736000D03*
%TD*%
D25*
%TO.C,L_p1*%
X85843000Y-60960000D03*
X87893000Y-60960000D03*
%TD*%
D20*
%TO.C,R20*%
X138072500Y-69088000D03*
X136247500Y-69088000D03*
%TD*%
D12*
%TO.C,R4*%
X99568000Y-94488000D03*
X99568000Y-92663000D03*
%TD*%
D20*
%TO.C,R19*%
X132992500Y-64262000D03*
X131167500Y-64262000D03*
%TD*%
D26*
%TO.C,BOOT1*%
X140119000Y-54066000D03*
X132169000Y-54066000D03*
X140119000Y-49566000D03*
X132169000Y-49566000D03*
%TD*%
D20*
%TO.C,R2*%
X146962500Y-52578000D03*
X145137500Y-52578000D03*
%TD*%
D27*
%TO.C,Q15*%
X87551500Y-74864000D03*
X87551500Y-72964000D03*
X85676500Y-73914000D03*
%TD*%
D20*
%TO.C,R8*%
X124102500Y-107442000D03*
X122277500Y-107442000D03*
%TD*%
D28*
%TO.C,U2*%
X73928000Y-49174000D03*
D29*
X71628000Y-55474000D03*
D28*
X71628000Y-49174000D03*
X69328000Y-49174000D03*
%TD*%
D20*
%TO.C,R15*%
X126896500Y-64262000D03*
X125071500Y-64262000D03*
%TD*%
D27*
%TO.C,Q8*%
X83995500Y-67244000D03*
X83995500Y-65344000D03*
X82120500Y-66294000D03*
%TD*%
%TO.C,Q16*%
X115237500Y-79944000D03*
X115237500Y-78044000D03*
X113362500Y-78994000D03*
%TD*%
D20*
%TO.C,R6*%
X99464500Y-96369500D03*
X97639500Y-96369500D03*
%TD*%
%TO.C,10k2*%
X68984500Y-79502000D03*
X67159500Y-79502000D03*
%TD*%
D30*
%TO.C,U3*%
X72390000Y-73406000D03*
X72390000Y-75946000D03*
X72390000Y-78486000D03*
X72390000Y-81026000D03*
X80010000Y-81026000D03*
X80010000Y-78486000D03*
X80010000Y-75946000D03*
X80010000Y-73406000D03*
%TD*%
D11*
%TO.C,R24*%
X94488000Y-74017500D03*
X94488000Y-75842500D03*
%TD*%
D12*
%TO.C,R23*%
X99314000Y-79906500D03*
X99314000Y-78081500D03*
%TD*%
D31*
%TO.C,D2*%
X91186000Y-96266000D03*
X92936000Y-96266000D03*
%TD*%
D20*
%TO.C,R5*%
X117752500Y-98552000D03*
X115927500Y-98552000D03*
%TD*%
D15*
%TO.C,10k1*%
X67159500Y-76708000D03*
X68984500Y-76708000D03*
%TD*%
D26*
%TO.C,EN1*%
X85763000Y-52614000D03*
X77813000Y-52614000D03*
X85763000Y-57114000D03*
X77813000Y-57114000D03*
%TD*%
D21*
%TO.C,RDA1*%
X136382000Y-75438000D03*
X134382000Y-75438000D03*
%TD*%
%TO.C,RDA2*%
X136382000Y-77724000D03*
X134382000Y-77724000D03*
%TD*%
D32*
%TO.C,R_p3*%
X67818000Y-104410000D03*
X67818000Y-106410000D03*
%TD*%
D17*
%TO.C,C5*%
X71019500Y-45466000D03*
X72744500Y-45466000D03*
%TD*%
D27*
%TO.C,Q1*%
X67993500Y-111186000D03*
X67993500Y-109286000D03*
X66118500Y-110236000D03*
%TD*%
D21*
%TO.C,RCL1*%
X136128000Y-83566000D03*
X134128000Y-83566000D03*
%TD*%
D20*
%TO.C,Rb1*%
X68222500Y-114300000D03*
X66397500Y-114300000D03*
%TD*%
%TO.C,R30*%
X114196500Y-84582000D03*
X112371500Y-84582000D03*
%TD*%
D16*
%TO.C,C3*%
X94742000Y-56388000D03*
X94742000Y-54663000D03*
%TD*%
D33*
%TO.C,Q11*%
X133030000Y-66626500D03*
X131130000Y-66626500D03*
X132080000Y-68501500D03*
%TD*%
D27*
%TO.C,Q6*%
X105585500Y-79944000D03*
X105585500Y-78044000D03*
X103710500Y-78994000D03*
%TD*%
D14*
%TO.C,D5*%
X87376000Y-94601000D03*
X87376000Y-92851000D03*
%TD*%
D18*
%TO.C,R_p2*%
X77733645Y-114038548D03*
X79733645Y-114038548D03*
%TD*%
D27*
%TO.C,Q13*%
X96949500Y-79944000D03*
X96949500Y-78044000D03*
X95074500Y-78994000D03*
%TD*%
D33*
%TO.C,Q9*%
X126934000Y-66626500D03*
X125034000Y-66626500D03*
X125984000Y-68501500D03*
%TD*%
D20*
%TO.C,7k1*%
X72032500Y-84836000D03*
X70207500Y-84836000D03*
%TD*%
M02*
